<svg xmlns="http://www.w3.org/2000/svg" width="417.662" height="417.688" viewBox="0 0 417.662 417.688">
  <g id="花火の無料アイコン_1_" data-name="花火の無料アイコン (1)" transform="translate(-0.016)">
    <path id="パス_36" data-name="パス 36" d="M252.356,64.9c8.078,0,13.585-17.643,15.681-35.437C270.662,7.171,261.246,0,252.356,0s-18.307,7.171-15.7,29.462C238.758,47.256,244.251,64.9,252.356,64.9Z" transform="translate(-43.509)" fill="#eecbea"/>
    <path id="パス_37" data-name="パス 37" d="M252.356,432.439c-8.106,0-13.6,17.644-15.7,35.443-2.611,22.285,6.793,29.462,15.7,29.462s18.306-7.177,15.681-29.462C265.941,450.083,260.434,432.439,252.356,432.439Z" transform="translate(-43.509 -79.657)" fill="#eecbea"/>
    <path id="パス_38" data-name="パス 38" d="M158.138,89.814c7.008-4.026,2.963-22.082-4.126-38.522-8.876-20.614-20.607-22.109-28.32-17.671-7.713,4.458-12.258,15.371,1.137,33.373C137.557,81.337,151.128,93.867,158.138,89.814Z" transform="translate(-21.787 -5.817)" fill="#eecbea"/>
    <path id="パス_39" data-name="パス 39" d="M344.027,408.862c-6.995,4.019-2.963,22.075,4.113,38.528,8.89,20.607,20.621,22.1,28.333,17.657s12.273-15.371-1.136-33.366C364.621,417.34,351.036,404.817,344.027,408.862Z" transform="translate(-62.697 -75.172)" fill="#eecbea"/>
    <path id="パス_40" data-name="パス 40" d="M66.973,126.837c-17.982-13.395-28.9-8.829-33.353-1.129s-2.949,19.436,17.658,28.326c16.453,7.084,34.5,11.109,38.535,4.127C93.858,151.145,81.316,137.553,66.973,126.837Z" transform="translate(-5.812 -21.793)" fill="#eecbea"/>
    <path id="パス_41" data-name="パス 41" d="M447.367,348.154c-16.426-7.1-34.489-11.115-38.521-4.133-4.046,7.016,8.5,20.607,22.84,31.323,17.995,13.4,28.9,8.835,33.339,1.13C469.49,368.768,467.988,357.037,447.367,348.154Z" transform="translate(-75.166 -62.701)" fill="#eecbea"/>
    <path id="パス_42" data-name="パス 42" d="M64.9,252.351c0-8.078-17.658-13.578-35.437-15.682C7.174,234.051.016,243.467.016,252.351c0,8.909,7.158,18.313,29.443,15.7C47.238,265.962,64.9,260.448,64.9,252.351Z" transform="translate(0 -43.513)" fill="#eecbea"/>
    <path id="パス_43" data-name="パス 43" d="M467.878,236.66c-17.779,2.111-35.424,7.6-35.424,15.689s17.644,13.6,35.424,15.7c22.3,2.625,29.457-6.792,29.457-15.7S490.177,234.049,467.878,236.66Z" transform="translate(-79.657 -43.512)" fill="#eecbea"/>
    <path id="パス_44" data-name="パス 44" d="M51.278,348.154c-20.607,8.883-22.109,20.614-17.658,28.32s15.371,12.266,33.353-1.13c14.343-10.715,26.872-24.307,22.826-31.323C85.78,337.039,67.731,341.058,51.278,348.154Z" transform="translate(-5.812 -62.701)" fill="#eecbea"/>
    <path id="パス_45" data-name="パス 45" d="M447.367,154.033c20.621-8.89,22.123-20.614,17.658-28.326-4.439-7.713-15.344-12.266-33.339,1.129-14.343,10.716-26.885,24.307-22.84,31.323C412.878,165.141,430.941,161.116,447.367,154.033Z" transform="translate(-75.166 -21.792)" fill="#eecbea"/>
    <path id="パス_46" data-name="パス 46" d="M126.828,431.682c-13.4,17.995-8.85,28.922-1.137,33.366s19.444,2.95,28.32-17.657c7.089-16.453,11.136-34.51,4.126-38.528C151.142,404.817,137.557,417.34,126.828,431.682Z" transform="translate(-21.787 -75.172)" fill="#eecbea"/>
    <path id="パス_47" data-name="パス 47" d="M375.336,67c13.408-18,8.863-28.914,1.136-33.373-7.712-4.438-19.443-2.943-28.333,17.671-7.076,16.44-11.123,34.5-4.113,38.522C351.021,93.867,364.62,81.337,375.336,67Z" transform="translate(-62.696 -5.817)" fill="#eecbea"/>
    <path id="パス_48" data-name="パス 48" d="M230.223,165.031c6.1-1.623,6.671-15.959,4.655-29.746-2.5-17.259-11.013-20.763-17.684-18.95-6.7,1.752-12.327,9.039-5.886,25.248C216.476,154.531,224.176,166.688,230.223,165.031Z" transform="translate(-38.398 -21.35)" fill="#eecbea"/>
    <path id="パス_49" data-name="パス 49" d="M275.565,335.819c-6.048,1.637-6.657,16.021-4.654,29.788,2.516,17.258,11.027,20.755,17.711,18.942,6.684-1.792,12.312-9.052,5.872-25.241C289.339,346.359,281.64,334.2,275.565,335.819Z" transform="translate(-49.71 -61.832)" fill="#eecbea"/>
    <path id="パス_50" data-name="パス 50" d="M153.053,153.373c-4.857,4.911-6.116,13.977,7.591,24.821,10.906,8.605,23.665,15.29,28.076,10.845,4.452-4.459-2.206-17.191-10.811-28.1C167.1,147.244,157.952,148.489,153.053,153.373Z" transform="translate(-27.568 -27.627)" fill="#eecbea"/>
    <path id="パス_51" data-name="パス 51" d="M349.77,349.5c4.9-4.892,6.143-13.991-7.549-24.828-10.933-8.605-23.639-15.263-28.09-10.831-4.425,4.438,2.232,17.183,10.852,28.1C335.793,355.621,344.885,354.383,349.77,349.5Z" transform="translate(-57.602 -57.55)" fill="#eecbea"/>
    <path id="パス_52" data-name="パス 52" d="M135.1,234.636c13.788,2.009,28.157,1.427,29.754-4.661,1.651-6.069-10.514-13.767-23.448-18.916-16.2-6.44-23.435-.805-25.249,5.872C114.354,223.588,117.844,232.113,135.1,234.636Z" transform="translate(-21.315 -38.355)" fill="#eecbea"/>
    <path id="パス_53" data-name="パス 53" d="M365.761,271.184c-13.775-1.989-28.117-1.414-29.768,4.641-1.623,6.076,10.527,13.753,23.462,18.916,16.209,6.454,23.475.805,25.262-5.866C386.53,282.191,383.038,273.688,365.761,271.184Z" transform="translate(-61.861 -49.764)" fill="#eecbea"/>
    <path id="パス_54" data-name="パス 54" d="M141.58,294.51c12.935-5.162,25.1-12.874,23.462-18.963-1.624-6.034-15.993-6.623-29.768-4.614-17.266,2.5-20.756,11.021-18.956,17.677C118.1,295.3,125.371,300.93,141.58,294.51Z" transform="translate(-21.345 -49.716)" fill="#eecbea"/>
    <path id="パス_55" data-name="パス 55" d="M359.275,211.307c-12.935,5.2-25.086,12.861-23.449,18.923s15.98,6.663,29.768,4.661c17.266-2.516,20.755-11.041,18.957-17.691C382.751,210.5,375.5,204.867,359.275,211.307Z" transform="translate(-61.83 -38.401)" fill="#eecbea"/>
    <path id="パス_56" data-name="パス 56" d="M160.9,324.981c-13.665,10.791-12.421,19.944-7.522,24.808s14,6.13,24.815-7.564c8.592-10.906,15.276-23.631,10.838-28.09C184.567,309.691,171.834,316.355,160.9,324.981Z" transform="translate(-27.622 -57.604)" fill="#eecbea"/>
    <path id="パス_57" data-name="パス 57" d="M341.936,177.91c13.693-10.817,12.435-19.958,7.577-24.821-4.885-4.9-14.017-6.136-24.815,7.563-8.633,10.927-15.29,23.665-10.852,28.083C318.284,193.179,331.017,186.508,341.936,177.91Z" transform="translate(-57.548 -27.572)" fill="#eecbea"/>
    <path id="パス_58" data-name="パス 58" d="M229.959,336c-6.048-1.624-13.747,10.512-18.9,23.461-6.455,16.21-.839,23.5,5.872,25.255,6.685,1.813,15.2-1.685,17.7-18.943C236.642,351.994,236.033,337.632,229.959,336Z" transform="translate(-38.349 -61.866)" fill="#eecbea"/>
    <path id="パス_59" data-name="パス 59" d="M288.874,116.152c-6.671-1.813-15.2,1.685-17.684,18.943-2.017,13.8-1.421,28.143,4.64,29.773,6.061,1.651,13.761-10.52,18.915-23.441C301.187,125.211,295.585,117.959,288.874,116.152Z" transform="translate(-49.76 -21.317)" fill="#eecbea"/>
    <path id="パス_60" data-name="パス 60" d="M214.536,248.357a33.827,33.827,0,1,0,33.827-33.813A33.822,33.822,0,0,0,214.536,248.357Z" transform="translate(-39.515 -39.52)" fill="#eecbea"/>
  </g>
</svg>
