<svg xmlns="http://www.w3.org/2000/svg" width="40" height="40" viewBox="0 0 40 40">
  <path id="前面オブジェクトで型抜き_4" data-name="前面オブジェクトで型抜き 4" d="M20,40A20.005,20.005,0,0,1,12.215,1.572,20.005,20.005,0,0,1,27.784,38.429,19.873,19.873,0,0,1,20,40ZM15.2,8.521a6.5,6.5,0,0,0-6.487,6.49v9.98A6.494,6.494,0,0,0,15.2,31.479h9.6a6.5,6.5,0,0,0,6.487-6.488V15.009A6.5,6.5,0,0,0,24.8,8.521Zm9.6,20.653H15.2a4.192,4.192,0,0,1-4.184-4.184V15.009A4.2,4.2,0,0,1,15.2,10.825h9.6a4.194,4.194,0,0,1,4.184,4.184v9.982A4.191,4.191,0,0,1,24.8,29.175ZM20,14.089A5.912,5.912,0,1,0,25.912,20,5.917,5.917,0,0,0,20,14.089Zm6.085-1.5a1.324,1.324,0,1,0,1.324,1.324A1.325,1.325,0,0,0,26.085,12.591ZM20,24.071A4.07,4.07,0,1,1,24.071,20,4.074,4.074,0,0,1,20,24.071Z" fill="#fff"/>
</svg>
