<svg xmlns="http://www.w3.org/2000/svg" width="40" height="40" viewBox="0 0 40 40">
  <path id="前面オブジェクトで型抜き_3" data-name="前面オブジェクトで型抜き 3" d="M20,40A20.005,20.005,0,0,1,12.215,1.572a20.005,20.005,0,0,1,15.57,36.857A19.875,19.875,0,0,1,20,40ZM8.4,27.461a14.353,14.353,0,0,0,7.773,2.281h.01a14.45,14.45,0,0,0,6.75-1.589,13.847,13.847,0,0,0,4.7-4.024l.025-.03c.2-.272.411-.578.654-.961l.051-.076c.027-.039.054-.079.079-.121.164-.269.326-.563.525-.955.017-.033.035-.065.053-.1s.052-.094.076-.143c.188-.384.364-.788.522-1.2l.006-.013a14.582,14.582,0,0,0,1.01-5.243c0-.206,0-.42-.015-.654a10.3,10.3,0,0,0,2.09-2.024l0,0c.152-.187.308-.38.452-.578l-.02.006a.066.066,0,0,1-.023.006l.009-.012A.315.315,0,0,0,33.15,12a10.094,10.094,0,0,1-2.3.7c-.207.032-.4.054-.578.069a5.09,5.09,0,0,0,1.9-2.1,5.47,5.47,0,0,0,.3-.663l0,0-.024.012a.049.049,0,0,1,.009-.023.086.086,0,0,0,.008-.016,10.126,10.126,0,0,1-3.225,1.233,5.073,5.073,0,0,0-8.668,4.538.445.445,0,0,0,.007.069l0,.023a14.357,14.357,0,0,1-9.5-4.25,14,14,0,0,1-.933-1.045v.008l-.02-.021a5.066,5.066,0,0,0,.908,6.239,5.408,5.408,0,0,0,.627.536A5.075,5.075,0,0,1,9.4,16.692v.064a5.079,5.079,0,0,0,2.963,4.6,5.206,5.206,0,0,0,1.065.388,4.753,4.753,0,0,1-2.142.092l-.041-.009a.418.418,0,0,1-.045-.01v.011H11.17a5.236,5.236,0,0,0,4.721,3.542,10.23,10.23,0,0,1-6.27,2.159H9.606c-.341,0-.681-.03-.973-.057l-.088-.013a1.171,1.171,0,0,1-.136-.023l.042.026Z" fill="#fff"/>
</svg>
